<?xml version="1.0" standalone="no"?>
<!DOCTYPE svg PUBLIC "-//W3C//DTD SVG 20010904//EN"
 "http://www.w3.org/TR/2001/REC-SVG-20010904/DTD/svg10.dtd">
<svg version="1.0" xmlns="http://www.w3.org/2000/svg"
 width="240.000000pt" height="240.000000pt" viewBox="0 0 240.000000 240.000000"
 preserveAspectRatio="xMidYMid meet">
<metadata>
Created by potrace 1.14, written by Peter Selinger 2001-2017
</metadata>
<g transform="translate(0.000000,240.000000) scale(0.100000,-0.100000)"
fill="#000000" stroke="none">
<path d="M1076 2123 c-3 -3 -22 -7 -43 -9 -21 -1 -49 -5 -63 -9 -14 -3 -36 -8
-50 -11 -43 -9 -175 -57 -181 -67 -3 -5 -9 -8 -13 -8 -21 3 -188 -96 -208
-124 -4 -5 -8 -7 -8 -3 0 7 -52 -38 -113 -98 -52 -51 -117 -124 -111 -124 3 0
-13 -24 -35 -54 -22 -29 -37 -56 -34 -60 4 -3 1 -6 -5 -6 -7 0 -12 -7 -12 -15
0 -8 -4 -15 -10 -15 -5 0 -10 -7 -10 -16 0 -9 -7 -28 -15 -42 -12 -22 -31 -64
-40 -92 -1 -3 -4 -12 -8 -20 -6 -16 -27 -92 -33 -123 -2 -10 -5 -26 -8 -35
-17 -58 -22 -248 -10 -346 3 -28 6 -58 6 -66 1 -8 5 -21 11 -28 5 -6 7 -12 4
-12 -3 0 -1 -15 4 -32 5 -18 12 -46 15 -63 3 -16 9 -34 13 -40 8 -9 34 -83 34
-95 0 -3 13 -27 29 -53 15 -26 28 -52 28 -57 0 -6 5 -10 10 -10 6 0 10 -7 10
-15 0 -8 5 -15 10 -15 6 0 10 -6 10 -13 0 -7 8 -22 18 -33 10 -10 23 -27 28
-36 8 -14 17 -12 89 20 44 20 82 39 85 42 3 3 25 18 50 32 25 15 59 37 75 50
41 31 195 188 195 199 0 4 6 14 13 21 18 19 97 148 97 159 0 5 4 9 8 9 5 0 14
18 21 40 6 22 16 40 21 40 6 0 10 7 10 15 0 8 11 38 24 67 28 65 39 91 40 100
1 3 4 10 9 14 4 4 7 13 7 20 0 7 5 25 12 41 6 15 12 33 13 38 2 19 18 70 24
80 3 6 6 15 7 20 1 6 7 29 13 53 7 23 9 46 6 51 -3 5 -1 11 4 13 9 3 23 62 24
106 1 12 5 22 9 22 4 0 7 3 6 8 -1 4 2 27 6 52 4 25 8 56 8 70 1 14 4 30 8 35
4 6 6 29 6 53 -1 23 2 42 6 42 5 0 8 -3 9 -7 0 -5 2 -21 4 -38 3 -29 8 -63 20
-150 3 -22 8 -47 10 -55 6 -20 17 -82 18 -97 0 -7 3 -13 7 -13 3 0 7 -11 8
-25 5 -57 7 -65 16 -65 5 0 7 -3 4 -6 -4 -3 -2 -20 3 -37 6 -18 12 -40 14 -49
7 -30 77 -232 90 -258 7 -14 27 -56 45 -95 17 -38 36 -77 41 -85 5 -8 15 -27
22 -42 6 -16 15 -28 19 -28 4 0 8 -6 8 -13 0 -7 13 -28 30 -47 16 -19 29 -38
30 -42 1 -21 140 -165 210 -218 25 -19 48 -39 51 -44 4 -4 12 -5 18 -2 6 4 11
3 11 -2 0 -6 30 -25 68 -43 37 -19 70 -38 73 -42 3 -5 9 -8 13 -8 9 1 39 -9
59 -20 12 -7 17 -5 17 5 0 8 3 16 8 18 4 1 20 23 37 48 16 25 32 47 35 50 21
20 113 234 125 290 2 8 4 16 5 18 3 2 4 7 13 52 14 72 19 117 21 181 2 36 6
71 10 77 4 7 3 12 -1 12 -5 0 -9 15 -9 33 -1 48 -18 189 -24 195 -3 3 -5 9
-14 55 -5 20 -12 37 -18 37 -5 0 -7 4 -4 9 4 5 2 20 -3 33 -5 12 -9 26 -10 30
-2 12 -103 202 -110 208 -3 3 -19 24 -35 48 -16 23 -33 42 -37 42 -5 0 -9 5
-9 12 0 15 -151 162 -191 185 -16 10 -29 21 -29 25 0 4 -4 8 -9 8 -6 0 -30 14
-54 30 -25 17 -50 30 -56 30 -6 0 -11 5 -11 10 0 6 -4 10 -10 10 -5 0 -33 11
-62 24 -47 21 -83 35 -113 42 -5 2 -33 9 -62 17 -28 8 -54 12 -57 9 -3 -3 -6
-1 -6 4 0 5 -25 10 -56 9 -31 0 -58 4 -61 8 -5 8 -228 8 -237 0z m137 -95 c7
-7 13 -30 14 -52 1 -21 12 -56 23 -78 11 -21 20 -40 20 -42 0 -2 -34 -4 -75
-4 -76 0 -88 7 -60 35 8 8 13 19 10 24 -4 5 -1 9 4 9 6 0 10 3 9 8 -2 9 13 95
19 105 6 11 23 9 36 -5z"/>
</g>
</svg>
